<svg width="60" height="51" viewBox="0 0 60 51" fill="none" xmlns="http://www.w3.org/2000/svg">
<path d="M0 10.3333H53.3333C55.1014 10.3333 56.7971 11.0357 58.0474 12.286C59.2976 13.5362 60 15.2319 60 17H0V10.3333Z" fill="#EF5A56" fill-opacity="0.25"/>
<path d="M0 20.3333H60V34.3333C60 39.9333 60 42.7333 58.91 44.8733C57.9513 46.7549 56.4215 48.2846 54.54 49.2433C52.4 50.3333 49.6 50.3333 44 50.3333H16C10.4 50.3333 7.6 50.3333 5.46 49.2433C3.57846 48.2846 2.04872 46.7549 1.09 44.8733C-2.38419e-07 42.7333 0 39.9333 0 34.3333V20.3333Z" fill="#EF5A56"/>
<path d="M0 10.3333C0 7.22668 -1.49012e-07 5.67334 0.506666 4.45001C0.841709 3.64061 1.33299 2.90518 1.95241 2.28575C2.57184 1.66633 3.30727 1.17505 4.11667 0.84001C5.34 0.333343 6.89333 0.333344 10 0.333344H17.81C20.5367 0.333344 21.8967 0.333343 23.1233 0.84001C24.35 1.34668 25.3133 2.31334 27.24 4.24001L33.3333 10.3333H0Z" fill="#EF5A56" fill-opacity="0.25"/>
</svg>
