<svg width="23" height="28" viewBox="0 0 23 28" fill="none" xmlns="http://www.w3.org/2000/svg">
<path fill-rule="evenodd" clip-rule="evenodd" d="M21.0625 21.0625C21.5282 20.7132 21.9062 20.2603 22.1666 19.7396C22.427 19.2188 22.5625 18.6447 22.5625 18.0625V4.3125C22.5625 3.31794 22.1674 2.36411 21.4642 1.66085C20.7609 0.957588 19.8071 0.5625 18.8125 0.5625H3.8125C2.81794 0.5625 1.86411 0.957588 1.16085 1.66085C0.457588 2.36411 0.0625 3.31794 0.0625 4.3125V18.0625C0.0625 18.6447 0.198044 19.2188 0.458398 19.7396C0.718752 20.2603 1.09676 20.7132 1.5625 21.0625L9.0625 26.6875C9.71161 27.1743 10.5011 27.4375 11.3125 27.4375C12.1239 27.4375 12.9134 27.1743 13.5625 26.6875L21.0625 21.0625Z" fill="#EF5A56"/>
</svg>
